<?xml version="1.0" encoding="UTF-8" standalone="no"?>
<!-- Created with Inkscape (http://www.inkscape.org/) -->

<svg
   width="205.67722mm"
   height="71.96357mm"
   viewBox="0 0 205.67722 71.96357"
   version="1.1"
   id="svg1"
   xml:space="preserve"
   xmlns="http://www.w3.org/2000/svg"
   xmlns:svg="http://www.w3.org/2000/svg"><defs
     id="defs1"><clipPath
       id="77c7ea57bc-2"><rect
         x="0"
         width="288"
         y="0"
         height="28"
         id="rect1-4" /></clipPath><clipPath
       id="db6b92078e-3"><rect
         x="0"
         width="336"
         y="0"
         height="119"
         id="rect2-8" /></clipPath></defs><g
     id="layer1"
     transform="translate(-2.4986137,-2.9070665)"><g
       id="g60"
       transform="matrix(0.6229068,0,0,0.68434648,-11.092133,-85.982376)"><g
         transform="translate(68,128)"
         id="g36"><g
           clip-path="url(#77c7ea57bc-2)"
           id="g35"><g
             fill="#000000"
             fill-opacity="1"
             id="g4"><g
               transform="translate(1.044918,21.311405)"
               id="g3"><g
                 id="g2"><path
                   d="M 16.9375,0 H 8.296875 C 8.117188,0 7.957031,-0.046875 7.8125,-0.140625 7.675781,-0.242188 7.582031,-0.378906 7.53125,-0.546875 l -6.125,-17.53125 c -0.054688,-0.144531 -0.078125,-0.28125 -0.078125,-0.40625 0,-0.144531 0.050781,-0.296875 0.15625,-0.453125 0.113281,-0.144531 0.34375,-0.21875 0.6875,-0.21875 H 7.40625 c 0.175781,0 0.332031,0.05469 0.46875,0.15625 0.144531,0.09375 0.242188,0.226562 0.296875,0.390625 l 4.21875,12.421875 h 0.453125 l 4.203125,-12.421875 c 0.05078,-0.164063 0.144531,-0.296875 0.28125,-0.390625 0.144531,-0.101562 0.304687,-0.15625 0.484375,-0.15625 h 5.21875 c 0.332031,0 0.554688,0.07813 0.671875,0.234375 0.113281,0.148437 0.171875,0.296875 0.171875,0.453125 0,0.117188 -0.02734,0.246094 -0.07813,0.390625 l -6.09375,17.53125 c -0.05469,0.167969 -0.152344,0.304687 -0.296875,0.40625 C 17.257812,-0.046875 17.101562,0 16.9375,0 Z m 0,0"
                   id="path2" /></g></g></g><g
             fill="#000000"
             fill-opacity="1"
             id="g7"><g
               transform="translate(26.599303,21.311405)"
               id="g6"><g
                 id="g5"><path
                   d="M 23.03125,0 H 17.796875 C 17.617188,0 17.457031,-0.046875 17.3125,-0.140625 17.175781,-0.242188 17.082031,-0.378906 17.03125,-0.546875 L 15.984375,-3.625 H 9.203125 L 8.15625,-0.546875 C 8.101562,-0.378906 8.003906,-0.242188 7.859375,-0.140625 7.722656,-0.046875 7.566406,0 7.390625,0 h -5.21875 c -0.34375,0 -0.574219,-0.078125 -0.6875,-0.234375 -0.105469,-0.15625 -0.15625,-0.304687 -0.15625,-0.453125 0,-0.125 0.023437,-0.253906 0.078125,-0.390625 L 7.5,-18.625 c 0.050781,-0.15625 0.144531,-0.28125 0.28125,-0.375 0.144531,-0.101562 0.304688,-0.15625 0.484375,-0.15625 h 8.640625 c 0.175781,0 0.332031,0.04687 0.46875,0.140625 0.144531,0.09375 0.242188,0.226563 0.296875,0.390625 l 6.125,17.546875 c 0.05078,0.136719 0.07813,0.265625 0.07813,0.390625 0,0.148438 -0.05859,0.296875 -0.171875,0.453125 C 23.585938,-0.078125 23.363281,0 23.03125,0 Z m -10.671875,-12.984375 -1.5,4.453125 h 3.46875 l -1.5,-4.453125 z m 0,0"
                   id="path4" /></g></g></g><g
             fill="#000000"
             fill-opacity="1"
             id="g10"><g
               transform="translate(54.966595,21.311405)"
               id="g9"><g
                 id="g8"><path
                   d="M 7.21875,0 H 2.125 C 1.882812,0 1.691406,-0.0703125 1.546875,-0.21875 1.398438,-0.375 1.328125,-0.570312 1.328125,-0.8125 v -17.546875 c 0,-0.238281 0.070313,-0.429687 0.21875,-0.578125 0.144531,-0.144531 0.335937,-0.21875 0.578125,-0.21875 h 5.09375 c 0.238281,0 0.429688,0.07422 0.578125,0.21875 0.15625,0.148438 0.234375,0.339844 0.234375,0.578125 V -0.8125 c 0,0.242188 -0.078125,0.4375 -0.234375,0.59375 C 7.648438,-0.0703125 7.457031,0 7.21875,0 Z m 0,0"
                   id="path7" /></g></g></g><g
             fill="#000000"
             fill-opacity="1"
             id="g13"><g
               transform="translate(70.51238,21.311405)"
               id="g12"><g
                 id="g11"><path
                   d="M 20.609375,0 H 15.53125 C 15.289062,0 15.09375,-0.0703125 14.9375,-0.21875 14.789062,-0.375 14.71875,-0.570312 14.71875,-0.8125 V -7.125 H 7.984375 v 6.3125 c 0,0.242188 -0.074219,0.4375 -0.21875,0.59375 C 7.617188,-0.0703125 7.425781,0 7.1875,0 H 2.125 C 1.882812,0 1.691406,-0.0703125 1.546875,-0.21875 1.398438,-0.375 1.328125,-0.570312 1.328125,-0.8125 v -17.546875 c 0,-0.238281 0.070313,-0.429687 0.21875,-0.578125 0.144531,-0.144531 0.335937,-0.21875 0.578125,-0.21875 h 5.0625 c 0.238281,0 0.429688,0.07422 0.578125,0.21875 0.144531,0.148438 0.21875,0.339844 0.21875,0.578125 v 6.328125 h 6.734375 v -6.328125 c 0,-0.238281 0.07031,-0.429687 0.21875,-0.578125 0.15625,-0.144531 0.351562,-0.21875 0.59375,-0.21875 h 5.078125 c 0.226563,0 0.414063,0.07422 0.5625,0.21875 0.15625,0.148438 0.234375,0.339844 0.234375,0.578125 V -0.8125 c 0,0.242188 -0.07813,0.4375 -0.234375,0.59375 C 21.023438,-0.0703125 20.835938,0 20.609375,0 Z m 0,0"
                   id="path10" /></g></g></g><g
             fill="#000000"
             fill-opacity="1"
             id="g16"><g
               transform="translate(97.268784,21.311405)"
               id="g15"><g
                 id="g14"><path
                   d="M 13.78125,0 H 8.328125 C 8.097656,0 7.90625,-0.0703125 7.75,-0.21875 7.601562,-0.375 7.53125,-0.570312 7.53125,-0.8125 V -14.265625 H 2.125 c -0.242188,0 -0.433594,-0.07031 -0.578125,-0.21875 -0.148437,-0.15625 -0.21875,-0.347656 -0.21875,-0.578125 v -3.296875 c 0,-0.238281 0.070313,-0.429687 0.21875,-0.578125 0.144531,-0.144531 0.335937,-0.21875 0.578125,-0.21875 h 18.15625 c 0.238281,0 0.429688,0.07422 0.578125,0.21875 0.15625,0.148438 0.234375,0.339844 0.234375,0.578125 v 3.296875 c 0,0.230469 -0.07813,0.421875 -0.234375,0.578125 -0.148437,0.148437 -0.339844,0.21875 -0.578125,0.21875 H 14.578125 V -0.8125 c 0,0.242188 -0.07813,0.4375 -0.234375,0.59375 C 14.195312,-0.0703125 14.007812,0 13.78125,0 Z m 0,0"
                   id="path13" /></g></g></g><g
             fill="#000000"
             fill-opacity="1"
             id="g19"><g
               transform="translate(123.27247,21.311405)"
               id="g18"><g
                 id="g17"><path
                   d="M 16.625,0.265625 H 6.078125 c -0.949219,0 -1.714844,-0.125 -2.296875,-0.375 -0.617188,-0.25 -1.105469,-0.550781 -1.46875,-0.90625 -0.179688,-0.1875 -0.335938,-0.375 -0.46875,-0.5625 -0.125,-0.195313 -0.226562,-0.394531 -0.296875,-0.59375 -0.148437,-0.4375 -0.21875,-0.804687 -0.21875,-1.109375 v -12.625 c 0,-0.300781 0.070313,-0.671875 0.21875,-1.109375 0.144531,-0.40625 0.398437,-0.785156 0.765625,-1.140625 0.351562,-0.351562 0.84375,-0.65625 1.46875,-0.90625 0.582031,-0.238281 1.347656,-0.359375 2.296875,-0.359375 H 16.625 c 0.945312,0 1.71875,0.121094 2.3125,0.359375 0.625,0.261719 1.117188,0.5625 1.484375,0.90625 0.351563,0.355469 0.609375,0.734375 0.765625,1.140625 0.144531,0.4375 0.21875,0.808594 0.21875,1.109375 v 12.625 c 0,0.585938 -0.132812,1.09375 -0.390625,1.53125 -0.28125,0.449219 -0.640625,0.820312 -1.078125,1.109375 -0.40625,0.28125 -0.914062,0.511719 -1.515625,0.6875 -0.617187,0.144531 -1.214844,0.21875 -1.796875,0.21875 z m -8.59375,-14.78125 v 9.859375 h 6.671875 v -9.859375 z m 0,0"
                   id="path16" /></g></g></g><g
             fill="#000000"
             fill-opacity="1"
             id="g22"><g
               transform="translate(151.91734,21.311405)"
               id="g21"><g
                 id="g20"><path
                   d="M 18.46875,0 2.125,-0.03125 c -0.242188,0 -0.433594,-0.070312 -0.578125,-0.21875 -0.148437,-0.144531 -0.21875,-0.335938 -0.21875,-0.578125 v -17.53125 c 0,-0.238281 0.070313,-0.429687 0.21875,-0.578125 0.144531,-0.144531 0.335937,-0.21875 0.578125,-0.21875 h 16.34375 c 0.238281,0 0.429688,0.07422 0.578125,0.21875 0.15625,0.148438 0.234375,0.339844 0.234375,0.578125 v 3.296875 c 0,0.230469 -0.07813,0.421875 -0.234375,0.578125 -0.148437,0.148437 -0.339844,0.21875 -0.578125,0.21875 H 8.03125 v 2.21875 h 8.953125 c 0.238281,0 0.429687,0.07813 0.578125,0.234375 0.15625,0.148438 0.234375,0.339844 0.234375,0.578125 v 3.265625 c 0,0.242188 -0.07813,0.4375 -0.234375,0.59375 -0.148438,0.148438 -0.339844,0.21875 -0.578125,0.21875 H 8.03125 v 2.25 h 10.4375 c 0.238281,0 0.429688,0.078125 0.578125,0.234375 0.15625,0.148437 0.234375,0.339844 0.234375,0.578125 v 3.28125 c 0,0.242188 -0.07813,0.4375 -0.234375,0.59375 C 18.898438,-0.0703125 18.707031,0 18.46875,0 Z m 0,0"
                   id="path19" /></g></g></g><g
             fill="#000000"
             fill-opacity="1"
             id="g25"><g
               transform="translate(177.43258,21.311405)"
               id="g24"><g
                 id="g23"><path
                   d="M 20.609375,0 H 15.53125 C 15.289062,0 15.09375,-0.0703125 14.9375,-0.21875 14.789062,-0.375 14.71875,-0.570312 14.71875,-0.8125 V -7.125 H 7.984375 v 6.3125 c 0,0.242188 -0.074219,0.4375 -0.21875,0.59375 C 7.617188,-0.0703125 7.425781,0 7.1875,0 H 2.125 C 1.882812,0 1.691406,-0.0703125 1.546875,-0.21875 1.398438,-0.375 1.328125,-0.570312 1.328125,-0.8125 v -17.546875 c 0,-0.238281 0.070313,-0.429687 0.21875,-0.578125 0.144531,-0.144531 0.335937,-0.21875 0.578125,-0.21875 h 5.0625 c 0.238281,0 0.429688,0.07422 0.578125,0.21875 0.144531,0.148438 0.21875,0.339844 0.21875,0.578125 v 6.328125 h 6.734375 v -6.328125 c 0,-0.238281 0.07031,-0.429687 0.21875,-0.578125 0.15625,-0.144531 0.351562,-0.21875 0.59375,-0.21875 h 5.078125 c 0.226563,0 0.414063,0.07422 0.5625,0.21875 0.15625,0.148438 0.234375,0.339844 0.234375,0.578125 V -0.8125 c 0,0.242188 -0.07813,0.4375 -0.234375,0.59375 C 21.023438,-0.0703125 20.835938,0 20.609375,0 Z m 0,0"
                   id="path22" /></g></g></g><g
             fill="#000000"
             fill-opacity="1"
             id="g28"><g
               transform="translate(206.50006,21.311405)"
               id="g27"><g
                 id="g26"><path
                   d="M 16.625,0 H 2.125 C 1.882812,0 1.691406,-0.0703125 1.546875,-0.21875 1.398438,-0.375 1.328125,-0.570312 1.328125,-0.8125 v -17.546875 c 0,-0.238281 0.070313,-0.429687 0.21875,-0.578125 0.144531,-0.144531 0.335937,-0.21875 0.578125,-0.21875 h 14.5 c 0.945312,0 1.71875,0.121094 2.3125,0.359375 0.625,0.261719 1.117188,0.5625 1.484375,0.90625 0.351563,0.355469 0.609375,0.734375 0.765625,1.140625 0.144531,0.4375 0.21875,0.808594 0.21875,1.109375 v 12.09375 c 0,0.585937 -0.132812,1.101563 -0.390625,1.546875 C 20.734375,-1.5625 20.375,-1.195312 19.9375,-0.90625 19.5,-0.601562 18.992188,-0.378906 18.421875,-0.234375 17.835938,-0.078125 17.238281,0 16.625,0 Z M 8.03125,-14.25 v 9.328125 h 6.671875 V -14.25 Z m 0,0"
                   id="path25" /></g></g></g><g
             fill="#000000"
             fill-opacity="1"
             id="g31"><g
               transform="translate(234.88081,21.311405)"
               id="g30"><g
                 id="g29"><path
                   d="M 16.625,0.265625 H 6.078125 c -0.949219,0 -1.714844,-0.125 -2.296875,-0.375 -0.617188,-0.25 -1.105469,-0.550781 -1.46875,-0.90625 -0.179688,-0.1875 -0.335938,-0.375 -0.46875,-0.5625 -0.125,-0.195313 -0.226562,-0.394531 -0.296875,-0.59375 -0.148437,-0.4375 -0.21875,-0.804687 -0.21875,-1.109375 v -12.625 c 0,-0.300781 0.070313,-0.671875 0.21875,-1.109375 0.144531,-0.40625 0.398437,-0.785156 0.765625,-1.140625 0.351562,-0.351562 0.84375,-0.65625 1.46875,-0.90625 0.582031,-0.238281 1.347656,-0.359375 2.296875,-0.359375 H 16.625 c 0.945312,0 1.71875,0.121094 2.3125,0.359375 0.625,0.261719 1.117188,0.5625 1.484375,0.90625 0.351563,0.355469 0.609375,0.734375 0.765625,1.140625 0.144531,0.4375 0.21875,0.808594 0.21875,1.109375 v 12.625 c 0,0.585938 -0.132812,1.09375 -0.390625,1.53125 -0.28125,0.449219 -0.640625,0.820312 -1.078125,1.109375 -0.40625,0.28125 -0.914062,0.511719 -1.515625,0.6875 -0.617187,0.144531 -1.214844,0.21875 -1.796875,0.21875 z m -8.59375,-14.78125 v 9.859375 h 6.671875 v -9.859375 z m 0,0"
                   id="path28" /></g></g></g><g
             fill="#000000"
             fill-opacity="1"
             id="g34"><g
               transform="translate(261.28065,21.311405)"
               id="g33"><g
                 id="g32"><path
                   d="M 13.78125,0 H 8.328125 C 8.097656,0 7.90625,-0.0703125 7.75,-0.21875 7.601562,-0.375 7.53125,-0.570312 7.53125,-0.8125 V -14.265625 H 2.125 c -0.242188,0 -0.433594,-0.07031 -0.578125,-0.21875 -0.148437,-0.15625 -0.21875,-0.347656 -0.21875,-0.578125 v -3.296875 c 0,-0.238281 0.070313,-0.429687 0.21875,-0.578125 0.144531,-0.144531 0.335937,-0.21875 0.578125,-0.21875 h 18.15625 c 0.238281,0 0.429688,0.07422 0.578125,0.21875 0.15625,0.148438 0.234375,0.339844 0.234375,0.578125 v 3.296875 c 0,0.230469 -0.07813,0.421875 -0.234375,0.578125 -0.148437,0.148437 -0.339844,0.21875 -0.578125,0.21875 H 14.578125 V -0.8125 c 0,0.242188 -0.07813,0.4375 -0.234375,0.59375 C 14.195312,-0.0703125 14.007812,0 13.78125,0 Z m 0,0"
                   id="path31" /></g></g></g></g></g><g
         transform="translate(19,153)"
         id="g59"><g
           clip-path="url(#db6b92078e-3)"
           id="g58"><g
             fill="#942900"
             fill-opacity="1"
             id="g39"><g
               transform="translate(0.271392,82.046152)"
               id="g38"><g
                 id="g37"><path
                   d="M 40.8125,-33.4375 38.625,-34.25 v 3.921875 l 2.1875,0.71875 z m -3.28125,0 -2.1875,-0.8125 v 3.921875 l 2.1875,0.71875 z M 9.203125,-15.296875 H 13.75 v 2 h -3.359375 l -0.28125,0.453125 -1.640625,2.375 H 2.546875 v -2.109375 H 7.375 L 7.5625,-12.75 Z m 8.203125,3.09375 16.65625,-16.765625 v -34.796875 h 5.109375 v 8.921875 c -0.492187,0.1875 -0.734375,0.554688 -0.734375,1.09375 0,0.25 0.04687,0.46875 0.140625,0.65625 0.09375,0.179688 0.242187,0.328125 0.453125,0.453125 0.21875,0.117187 0.445312,0.171875 0.6875,0.171875 0.175781,0 0.34375,-0.03125 0.5,-0.09375 0.15625,-0.0625 0.289062,-0.148438 0.40625,-0.265625 0.125,-0.125 0.21875,-0.257813 0.28125,-0.40625 C 40.96875,-53.390625 41,-53.5625 41,-53.75 c 0,-0.539062 -0.246094,-0.90625 -0.734375,-1.09375 v -8.921875 h 5.015625 v 39.4375 L 20.953125,0 H 2.546875 v -5.09375 h 10.84375 c 0.238281,0.542969 0.632813,0.8125 1.1875,0.8125 0.175781,0 0.367187,-0.054688 0.578125,-0.171875 0.21875,-0.125 0.382812,-0.289063 0.5,-0.5 0.125,-0.21875 0.1875,-0.421875 0.1875,-0.609375 0,-0.363281 -0.136719,-0.664062 -0.40625,-0.90625 -0.273438,-0.238281 -0.558594,-0.359375 -0.859375,-0.359375 -0.554687,0 -0.949219,0.242187 -1.1875,0.71875 H 2.546875 V -8.46875 H 9.65625 l 0.265625,-0.453125 1.5625,-2.28125 h 13.75 L 32.34375,-18.3125 c 0.113281,0.0625 0.265625,0.09375 0.453125,0.09375 0.300781,0 0.585937,-0.117188 0.859375,-0.359375 0.269531,-0.25 0.40625,-0.554687 0.40625,-0.921875 0,-0.363281 -0.136719,-0.664062 -0.40625,-0.90625 -0.273438,-0.238281 -0.574219,-0.359375 -0.90625,-0.359375 -0.335938,0 -0.625,0.121094 -0.875,0.359375 -0.242188,0.242188 -0.359375,0.542969 -0.359375,0.90625 0,0.1875 0.03125,0.34375 0.09375,0.46875 l -6.828125,6.828125 z m -14.859375,-46 v -5.5625 H 7.65625 v 23.59375 c -0.554688,0.242187 -0.828125,0.636719 -0.828125,1.1875 0,0.304687 0.132813,0.589844 0.40625,0.859375 0.28125,0.273438 0.585937,0.40625 0.921875,0.40625 0.332031,0 0.617188,-0.132812 0.859375,-0.40625 0.238281,-0.269531 0.359375,-0.554688 0.359375,-0.859375 0,-0.550781 -0.242188,-0.945313 -0.71875,-1.1875 v -23.59375 H 13.75 v 47.375 H 8.65625 L 8.5625,-16.125 6.828125,-13.578125 h -4.28125 z m 0,0"
                   id="path36" /></g></g></g><g
             fill="#942900"
             fill-opacity="1"
             id="g42"><g
               transform="translate(48.180564,82.046152)"
               id="g41"><g
                 id="g40"><path
                   d="M 26.234375,-74.515625 V -79.53125 H 37.4375 v 11.125 H 26.234375 v -5.015625 h 4.375 c 0.238281,0.492187 0.632813,0.734375 1.1875,0.734375 0.363281,0 0.664063,-0.117188 0.90625,-0.359375 0.238281,-0.25 0.359375,-0.554687 0.359375,-0.921875 0,-0.363281 -0.121094,-0.664062 -0.359375,-0.90625 -0.242187,-0.25 -0.542969,-0.375 -0.90625,-0.375 -0.554687,0 -0.949219,0.246094 -1.1875,0.734375 z M 40.8125,-51.828125 38.625,-52.5625 v 3.828125 l 2.1875,0.8125 z m -3.28125,0 -2.1875,-0.734375 v 3.828125 l 2.1875,0.8125 z m -31.609375,31.15625 h -3.375 v -2.109375 h 4.46875 l 1.734375,2.5625 0.171875,0.265625 H 13.75 v 2 h -6 L 6.1875,-20.21875 Z m 34.34375,0.71875 H 45.28125 V 0 H 34.0625 v -19.953125 h 5.109375 v 4.109375 c -0.492187,0.242188 -0.734375,0.632812 -0.734375,1.171875 0,0.367187 0.117188,0.671875 0.359375,0.921875 0.25,0.242188 0.554687,0.359375 0.921875,0.359375 0.363281,0 0.664062,-0.117187 0.90625,-0.359375 0.25,-0.25 0.375,-0.554688 0.375,-0.921875 0,-0.539063 -0.246094,-0.929687 -0.734375,-1.171875 z m -5.28125,-5.09375 2.1875,0.71875 v -3.8125 l -2.1875,-0.828125 z M 38.4375,-33.0625 38.265625,-33.25 H 34.0625 V -52.5625 H 20.953125 L 14.75,-46.359375 H 7.65625 v 6.09375 c -0.554688,0.1875 -0.828125,0.585937 -0.828125,1.1875 0,0.304687 0.132813,0.59375 0.40625,0.875 0.28125,0.273437 0.585937,0.40625 0.921875,0.40625 0.332031,0 0.617188,-0.132813 0.859375,-0.40625 0.238281,-0.28125 0.359375,-0.570313 0.359375,-0.875 0,-0.601563 -0.242188,-1 -0.71875,-1.1875 v -5.09375 H 13.75 V -32.25 h 23.96875 l 1.71875,2.546875 0.09375,0.28125 h 5.75 v 8.375 H 9.46875 L 7.75,-23.59375 7.5625,-23.78125 H 2.546875 v -2.359375 H 10.5625 c 0.25,0.542969 0.644531,0.8125 1.1875,0.8125 0.300781,0 0.585938,-0.132813 0.859375,-0.40625 0.28125,-0.269531 0.421875,-0.554687 0.421875,-0.859375 0,-0.1875 -0.04687,-0.351562 -0.140625,-0.5 C 12.796875,-27.25 12.6875,-27.382812 12.5625,-27.5 c -0.117188,-0.125 -0.25,-0.21875 -0.40625,-0.28125 C 12.007812,-27.84375 11.875,-27.875 11.75,-27.875 c -0.542969,0 -0.9375,0.246094 -1.1875,0.734375 H 2.546875 v -22.875 l 13.765625,-13.75 h 28.96875 v 5.09375 H 40.8125 c -0.242188,-0.539063 -0.636719,-0.8125 -1.1875,-0.8125 -0.304688,0 -0.59375,0.136719 -0.875,0.40625 -0.273438,0.273437 -0.40625,0.578125 -0.40625,0.921875 0,0.335938 0.132812,0.621094 0.40625,0.859375 0.28125,0.242187 0.570312,0.359375 0.875,0.359375 0.550781,0 0.945312,-0.238281 1.1875,-0.71875 h 4.46875 v 27.140625 H 40.078125 Z M 13.75,-5.5625 V 0 H 8.65625 V -5.09375 C 9.132812,-5.34375 9.375,-5.738281 9.375,-6.28125 9.375,-6.46875 9.328125,-6.664062 9.234375,-6.875 9.148438,-7.09375 9,-7.257812 8.78125,-7.375 8.570312,-7.5 8.347656,-7.5625 8.109375,-7.5625 c -0.304687,0 -0.59375,0.140625 -0.875,0.421875 -0.273437,0.273437 -0.40625,0.558594 -0.40625,0.859375 0,0.542969 0.273437,0.9375 0.828125,1.1875 V 0 H 2.546875 v -18.578125 h 2.28125 L 6.375,-16.3125 6.65625,-15.84375 H 13.75 Z M 10.390625,-74.515625 V -79.53125 H 21.59375 v 11.125 H 10.390625 v -5.015625 H 14.75 c 0.25,0.492187 0.644531,0.734375 1.1875,0.734375 0.363281,0 0.664062,-0.117188 0.90625,-0.359375 0.25,-0.25 0.375,-0.554687 0.375,-0.921875 0,-0.363281 -0.125,-0.664062 -0.375,-0.90625 -0.242188,-0.25 -0.542969,-0.375 -0.90625,-0.375 -0.542969,0 -0.9375,0.246094 -1.1875,0.734375 z m 0,0"
                   id="path39" /></g></g></g><g
             fill="#942900"
             fill-opacity="1"
             id="g45"><g
               transform="translate(96.089736,82.046152)"
               id="g44"><g
                 id="g43"><path
                   d="m 40.8125,-60.671875 -2.1875,-0.8125 v 3.90625 l 2.1875,0.734375 z m -3.28125,0 -2.1875,-0.8125 v 3.90625 l 2.1875,0.734375 z m -30.875,39.53125 H 13.75 V 0 H 8.65625 v -13.203125 c 0.476562,-0.25 0.71875,-0.644531 0.71875,-1.1875 0,-0.363281 -0.121094,-0.664063 -0.359375,-0.90625 -0.242187,-0.25 -0.542969,-0.375 -0.90625,-0.375 -0.125,0 -0.28125,0.03125 -0.46875,0.09375 -0.179687,0.0625 -0.3125,0.15625 -0.40625,0.28125 -0.085937,0.117187 -0.171875,0.25 -0.265625,0.40625 -0.09375,0.148437 -0.140625,0.3125 -0.140625,0.5 0,0.542969 0.273437,0.9375 0.828125,1.1875 V 0 H 2.546875 v -23.859375 h 2.28125 L 6.375,-21.59375 Z m 2.265625,-4.09375 H 13.75 v 2 h -6 L 6.1875,-25.5 5.921875,-25.96875 h -3.375 v -2 h 4.46875 L 8.75,-25.5 Z M 45.28125,0 H 34.0625 v -25.234375 h 5.109375 v 6.828125 c -0.492187,0.25 -0.734375,0.648438 -0.734375,1.1875 0,0.304688 0.117188,0.59375 0.359375,0.875 0.25,0.273438 0.539063,0.40625 0.875,0.40625 0.332031,0 0.632813,-0.132812 0.90625,-0.40625 C 40.859375,-16.625 41,-16.914062 41,-17.21875 c 0,-0.539062 -0.277344,-0.9375 -0.828125,-1.1875 v -6.828125 H 45.28125 Z M 15.9375,-33.4375 13.75,-34.25 v 3.921875 l 2.1875,0.8125 z m 22.5,-4.828125 -0.171875,-0.265625 H 34.0625 v -25.234375 h 11.21875 v 27.96875 h -5.109375 v -6.75 C 40.722656,-42.785156 41,-43.175781 41,-43.71875 c 0,-0.3125 -0.140625,-0.601562 -0.421875,-0.875 C 40.304688,-44.863281 40.019531,-45 39.71875,-45 c -0.242188,0 -0.46875,0.0625 -0.6875,0.1875 -0.210938,0.117188 -0.359375,0.28125 -0.453125,0.5 -0.09375,0.210938 -0.140625,0.40625 -0.140625,0.59375 0,0.542969 0.242188,0.933594 0.734375,1.171875 v 5.375 z m -35.890625,-19.9375 v -5.5625 H 7.65625 v 5.921875 c -0.554688,0.242188 -0.828125,0.636719 -0.828125,1.1875 0,0.304688 0.132813,0.589844 0.40625,0.859375 0.28125,0.273437 0.585937,0.40625 0.921875,0.40625 0.332031,0 0.617188,-0.132813 0.859375,-0.40625 0.238281,-0.269531 0.359375,-0.554687 0.359375,-0.859375 0,-0.550781 -0.242188,-0.945312 -0.71875,-1.1875 v -5.921875 H 13.75 V -37.4375 h 23.96875 l 1.71875,2.453125 0.09375,0.28125 h 5.75 v 8.375 H 9.46875 L 7.75,-28.78125 7.5625,-29.0625 H 2.546875 Z m 0,0"
                   id="path42" /></g></g></g><g
             fill="#942900"
             fill-opacity="1"
             id="g48"><g
               transform="translate(143.9989,82.046152)"
               id="g47"><g
                 id="g46"><path
                   d="m 34.984375,-59.75 -2.1875,-0.828125 v 3.921875 l 2.1875,0.71875 z m -3.28125,0 -2.1875,-0.828125 v 3.921875 l 2.1875,0.71875 z M 13.125,-59.671875 V -52.5625 H 2.546875 v -5.09375 H 8.46875 c 0.25,0.480469 0.644531,0.71875 1.1875,0.71875 0.363281,0 0.664062,-0.117188 0.90625,-0.359375 0.25,-0.238281 0.375,-0.523437 0.375,-0.859375 0,-0.34375 -0.125,-0.648438 -0.375,-0.921875 -0.242188,-0.269531 -0.542969,-0.40625 -0.90625,-0.40625 -0.542969,0 -0.9375,0.273437 -1.1875,0.8125 H 2.546875 v -5.09375 H 15.84375 v 2.28125 l -2.265625,1.546875 z m 17.390625,48.46875 H 45.28125 v 5.09375 h -5.921875 c -0.25,-0.476563 -0.648437,-0.71875 -1.1875,-0.71875 -0.367187,0 -0.671875,0.121094 -0.921875,0.359375 -0.242188,0.242188 -0.359375,0.53125 -0.359375,0.875 0,0.335938 0.117187,0.636719 0.359375,0.90625 0.25,0.273438 0.554688,0.40625 0.921875,0.40625 0.539063,0 0.9375,-0.269531 1.1875,-0.8125 H 45.28125 V 0 h -17.5 v -5.1875 l 2.546875,-1.734375 0.1875,-0.09375 z m -9.46875,-52.5625 H 45.28125 V -52.5625 H 29.515625 v 45 l -2.546875,1.640625 -0.1875,0.1875 V 0 h -2.375 v -11.109375 c 0.550781,-0.25 0.828125,-0.644531 0.828125,-1.1875 0,-0.300781 -0.140625,-0.585937 -0.421875,-0.859375 -0.273438,-0.28125 -0.558594,-0.421875 -0.859375,-0.421875 -0.242187,0 -0.46875,0.0625 -0.6875,0.1875 -0.210937,0.125 -0.359375,0.28125 -0.453125,0.46875 -0.08594,0.179687 -0.125,0.386719 -0.125,0.625 0,0.542969 0.238281,0.9375 0.71875,1.1875 V 0 H 18.3125 v -56.84375 l 2.546875,-1.734375 0.1875,-0.171875 z m -3.734375,52.5625 V 0 H 2.546875 v -11.203125 z m 0.640625,-52.5625 h 2.09375 v 4.46875 l -2.5625,1.71875 -0.171875,0.1875 v 4.828125 h -2.09375 v -6.015625 l 2.265625,-1.546875 0.46875,-0.265625 z m 0,0"
                   id="path45" /></g></g></g><g
             fill="#942900"
             fill-opacity="1"
             id="g51"><g
               transform="translate(191.90808,82.046152)"
               id="g50"><g
                 id="g49"><path
                   d="m 35.4375,-34.25 v 3.921875 l 2.1875,0.8125 V -33.4375 Z m -3.28125,0 v 3.921875 l 2.1875,0.8125 V -33.4375 Z M 2.546875,-9.46875 V -21.6875 H 7.65625 v 3.734375 c -0.554688,0.1875 -0.828125,0.554687 -0.828125,1.09375 0,0.367187 0.132813,0.671875 0.40625,0.921875 0.28125,0.242188 0.585937,0.359375 0.921875,0.359375 0.332031,0 0.617188,-0.117187 0.859375,-0.359375 0.238281,-0.25 0.359375,-0.554688 0.359375,-0.921875 0,-0.539063 -0.242188,-0.90625 -0.71875,-1.09375 V -21.6875 H 13.75 v 9.484375 H 8.015625 l -0.1875,0.171875 -1.71875,2.5625 z m 38.265625,-18.5 h 4.46875 v 2 h -3.375 L 41.625,-25.5 40.078125,-23.234375 H 34.0625 v -2 h 4.828125 L 39.078125,-25.5 Z M 19.953125,-51.5625 14.75,-46.359375 H 7.65625 v 4.09375 c -0.554688,0.242187 -0.828125,0.636719 -0.828125,1.1875 0,0.304687 0.132813,0.589844 0.40625,0.859375 0.28125,0.273438 0.570313,0.40625 0.875,0.40625 0.238281,0 0.460937,-0.05469 0.671875,-0.171875 0.21875,-0.125 0.367188,-0.289063 0.453125,-0.5 0.09375,-0.21875 0.140625,-0.414063 0.140625,-0.59375 0,-0.550781 -0.242188,-0.945313 -0.71875,-1.1875 v -3.09375 H 13.75 v 7.921875 h 31.53125 v 8.375 h -5.015625 l -0.1875,0.28125 -1.734375,2.453125 H 2.546875 v -5.015625 h 11.125 c 0.175781,0.492188 0.566406,0.734375 1.171875,0.734375 0.300781,0 0.585938,-0.117187 0.859375,-0.359375 0.28125,-0.25 0.421875,-0.554688 0.421875,-0.921875 0,-0.238281 -0.07813,-0.445313 -0.234375,-0.625 -0.148437,-0.1875 -0.3125,-0.335937 -0.5,-0.453125 -0.179687,-0.125 -0.359375,-0.1875 -0.546875,-0.1875 -0.605469,0 -0.996094,0.246094 -1.171875,0.734375 h -11.125 v -17.59375 l 13.765625,-13.75 h 28.96875 v 5.09375 h -8.390625 c -0.242187,-0.539063 -0.636719,-0.8125 -1.1875,-0.8125 -0.304687,0 -0.589844,0.136719 -0.859375,0.40625 -0.273438,0.273437 -0.40625,0.5625 -0.40625,0.875 0,0.242187 0.05469,0.46875 0.171875,0.6875 0.125,0.210937 0.273437,0.359375 0.453125,0.453125 0.1875,0.08594 0.398438,0.125 0.640625,0.125 0.550781,0 0.945313,-0.238281 1.1875,-0.71875 h 8.390625 v 5.09375 H 20.953125 Z m 16.9375,39.359375 H 34.0625 v -4.828125 h 2.828125 z m -23.140625,1 H 37.984375 V -18.03125 H 34.0625 v -3.109375 h 7.109375 L 41.453125,-21.59375 43,-23.859375 h 2.28125 v 17.75 h -8.75 c -0.1875,-0.476563 -0.554688,-0.71875 -1.09375,-0.71875 -0.367188,0 -0.671875,0.121094 -0.921875,0.359375 -0.242187,0.242188 -0.359375,0.53125 -0.359375,0.875 0,0.335938 0.117188,0.636719 0.359375,0.90625 0.25,0.273438 0.554687,0.40625 0.921875,0.40625 0.539062,0 0.90625,-0.269531 1.09375,-0.8125 h 8.75 V 0 H 2.546875 V -8.375 H 6.65625 L 6.828125,-8.65625 8.5625,-11.203125 Z M 45.28125,-51.5625 v 9.484375 H 34.0625 V -51.5625 h 5.109375 v 3.640625 c -0.492187,0.25 -0.734375,0.648437 -0.734375,1.1875 0,0.304687 0.117188,0.59375 0.359375,0.875 0.25,0.273437 0.554687,0.40625 0.921875,0.40625 0.175781,0 0.367188,-0.05469 0.578125,-0.171875 0.21875,-0.125 0.390625,-0.289062 0.515625,-0.5 0.125,-0.21875 0.1875,-0.421875 0.1875,-0.609375 0,-0.539063 -0.246094,-0.9375 -0.734375,-1.1875 V -51.5625 Z m 0,0"
                   id="path48" /></g></g></g><g
             fill="#942900"
             fill-opacity="1"
             id="g54"><g
               transform="translate(239.81726,82.046152)"
               id="g53"><g
                 id="g52"><path
                   d="m 35.4375,-34.25 v 3.921875 l 2.1875,0.8125 V -33.4375 Z m -3.28125,0 v 3.921875 l 2.1875,0.8125 V -33.4375 Z M 2.546875,-9.46875 V -21.6875 H 7.65625 v 3.734375 c -0.554688,0.1875 -0.828125,0.554687 -0.828125,1.09375 0,0.367187 0.132813,0.671875 0.40625,0.921875 0.28125,0.242188 0.585937,0.359375 0.921875,0.359375 0.332031,0 0.617188,-0.117187 0.859375,-0.359375 0.238281,-0.25 0.359375,-0.554688 0.359375,-0.921875 0,-0.539063 -0.242188,-0.90625 -0.71875,-1.09375 V -21.6875 H 13.75 v 9.484375 H 8.015625 l -0.1875,0.171875 -1.71875,2.5625 z m 38.265625,-18.5 h 4.46875 v 2 h -3.375 L 41.625,-25.5 40.078125,-23.234375 H 34.0625 v -2 h 4.828125 L 39.078125,-25.5 Z M 19.953125,-51.5625 14.75,-46.359375 H 7.65625 v 4.09375 c -0.554688,0.242187 -0.828125,0.636719 -0.828125,1.1875 0,0.304687 0.132813,0.589844 0.40625,0.859375 0.28125,0.273438 0.570313,0.40625 0.875,0.40625 0.238281,0 0.460937,-0.05469 0.671875,-0.171875 0.21875,-0.125 0.367188,-0.289063 0.453125,-0.5 0.09375,-0.21875 0.140625,-0.414063 0.140625,-0.59375 0,-0.550781 -0.242188,-0.945313 -0.71875,-1.1875 v -3.09375 H 13.75 v 7.921875 h 31.53125 v 8.375 h -5.015625 l -0.1875,0.28125 -1.734375,2.453125 H 2.546875 v -5.015625 h 11.125 c 0.175781,0.492188 0.566406,0.734375 1.171875,0.734375 0.300781,0 0.585938,-0.117187 0.859375,-0.359375 0.28125,-0.25 0.421875,-0.554688 0.421875,-0.921875 0,-0.238281 -0.07813,-0.445313 -0.234375,-0.625 -0.148437,-0.1875 -0.3125,-0.335937 -0.5,-0.453125 -0.179687,-0.125 -0.359375,-0.1875 -0.546875,-0.1875 -0.605469,0 -0.996094,0.246094 -1.171875,0.734375 h -11.125 v -17.59375 l 13.765625,-13.75 h 28.96875 v 5.09375 h -8.390625 c -0.242187,-0.539063 -0.636719,-0.8125 -1.1875,-0.8125 -0.304687,0 -0.589844,0.136719 -0.859375,0.40625 -0.273438,0.273437 -0.40625,0.5625 -0.40625,0.875 0,0.242187 0.05469,0.46875 0.171875,0.6875 0.125,0.210937 0.273437,0.359375 0.453125,0.453125 0.1875,0.08594 0.398438,0.125 0.640625,0.125 0.550781,0 0.945313,-0.238281 1.1875,-0.71875 h 8.390625 v 5.09375 H 20.953125 Z m 16.9375,39.359375 H 34.0625 v -4.828125 h 2.828125 z m -23.140625,1 H 37.984375 V -18.03125 H 34.0625 v -3.109375 h 7.109375 L 41.453125,-21.59375 43,-23.859375 h 2.28125 v 17.75 h -8.75 c -0.1875,-0.476563 -0.554688,-0.71875 -1.09375,-0.71875 -0.367188,0 -0.671875,0.121094 -0.921875,0.359375 -0.242187,0.242188 -0.359375,0.53125 -0.359375,0.875 0,0.335938 0.117188,0.636719 0.359375,0.90625 0.25,0.273438 0.554687,0.40625 0.921875,0.40625 0.539062,0 0.90625,-0.269531 1.09375,-0.8125 h 8.75 V 0 H 2.546875 V -8.375 H 6.65625 L 6.828125,-8.65625 8.5625,-11.203125 Z M 45.28125,-51.5625 v 9.484375 H 34.0625 V -51.5625 h 5.109375 v 3.640625 c -0.492187,0.25 -0.734375,0.648437 -0.734375,1.1875 0,0.304687 0.117188,0.59375 0.359375,0.875 0.25,0.273437 0.554687,0.40625 0.921875,0.40625 0.175781,0 0.367188,-0.05469 0.578125,-0.171875 0.21875,-0.125 0.390625,-0.289062 0.515625,-0.5 0.125,-0.21875 0.1875,-0.421875 0.1875,-0.609375 0,-0.539063 -0.246094,-0.9375 -0.734375,-1.1875 V -51.5625 Z m 0,0"
                   id="path51" /></g></g></g><g
             fill="#942900"
             fill-opacity="1"
             id="g57"><g
               transform="translate(287.72641,82.046152)"
               id="g56"><g
                 id="g55"><path
                   d="M 26.234375,-74.515625 V -79.53125 H 37.4375 v 11.125 H 26.234375 v -5.015625 h 4.375 c 0.238281,0.492187 0.632813,0.734375 1.1875,0.734375 0.363281,0 0.664063,-0.117188 0.90625,-0.359375 0.238281,-0.25 0.359375,-0.554687 0.359375,-0.921875 0,-0.363281 -0.121094,-0.664062 -0.359375,-0.90625 -0.242187,-0.25 -0.542969,-0.375 -0.90625,-0.375 -0.554687,0 -0.949219,0.246094 -1.1875,0.734375 z M 40.8125,-51.828125 38.625,-52.5625 v 3.828125 l 2.1875,0.8125 z m -3.28125,0 -2.1875,-0.734375 v 3.828125 l 2.1875,0.8125 z m -31.609375,31.15625 h -3.375 v -2.109375 h 4.46875 l 1.734375,2.5625 0.171875,0.265625 H 13.75 v 2 h -6 L 6.1875,-20.21875 Z m 34.34375,0.71875 H 45.28125 V 0 H 34.0625 v -19.953125 h 5.109375 v 4.109375 c -0.492187,0.242188 -0.734375,0.632812 -0.734375,1.171875 0,0.367187 0.117188,0.671875 0.359375,0.921875 0.25,0.242188 0.554687,0.359375 0.921875,0.359375 0.363281,0 0.664062,-0.117187 0.90625,-0.359375 0.25,-0.25 0.375,-0.554688 0.375,-0.921875 0,-0.539063 -0.246094,-0.929687 -0.734375,-1.171875 z m -5.28125,-5.09375 2.1875,0.71875 v -3.8125 l -2.1875,-0.828125 z M 38.4375,-33.0625 38.265625,-33.25 H 34.0625 V -52.5625 H 20.953125 L 14.75,-46.359375 H 7.65625 v 6.09375 c -0.554688,0.1875 -0.828125,0.585937 -0.828125,1.1875 0,0.304687 0.132813,0.59375 0.40625,0.875 0.28125,0.273437 0.585937,0.40625 0.921875,0.40625 0.332031,0 0.617188,-0.132813 0.859375,-0.40625 0.238281,-0.28125 0.359375,-0.570313 0.359375,-0.875 0,-0.601563 -0.242188,-1 -0.71875,-1.1875 v -5.09375 H 13.75 V -32.25 h 23.96875 l 1.71875,2.546875 0.09375,0.28125 h 5.75 v 8.375 H 9.46875 L 7.75,-23.59375 7.5625,-23.78125 H 2.546875 v -2.359375 H 10.5625 c 0.25,0.542969 0.644531,0.8125 1.1875,0.8125 0.300781,0 0.585938,-0.132813 0.859375,-0.40625 0.28125,-0.269531 0.421875,-0.554687 0.421875,-0.859375 0,-0.1875 -0.04687,-0.351562 -0.140625,-0.5 C 12.796875,-27.25 12.6875,-27.382812 12.5625,-27.5 c -0.117188,-0.125 -0.25,-0.21875 -0.40625,-0.28125 C 12.007812,-27.84375 11.875,-27.875 11.75,-27.875 c -0.542969,0 -0.9375,0.246094 -1.1875,0.734375 H 2.546875 v -22.875 l 13.765625,-13.75 h 28.96875 v 5.09375 H 40.8125 c -0.242188,-0.539063 -0.636719,-0.8125 -1.1875,-0.8125 -0.304688,0 -0.59375,0.136719 -0.875,0.40625 -0.273438,0.273437 -0.40625,0.578125 -0.40625,0.921875 0,0.335938 0.132812,0.621094 0.40625,0.859375 0.28125,0.242187 0.570312,0.359375 0.875,0.359375 0.550781,0 0.945312,-0.238281 1.1875,-0.71875 h 4.46875 v 27.140625 H 40.078125 Z M 13.75,-5.5625 V 0 H 8.65625 V -5.09375 C 9.132812,-5.34375 9.375,-5.738281 9.375,-6.28125 9.375,-6.46875 9.328125,-6.664062 9.234375,-6.875 9.148438,-7.09375 9,-7.257812 8.78125,-7.375 8.570312,-7.5 8.347656,-7.5625 8.109375,-7.5625 c -0.304687,0 -0.59375,0.140625 -0.875,0.421875 -0.273437,0.273437 -0.40625,0.558594 -0.40625,0.859375 0,0.542969 0.273437,0.9375 0.828125,1.1875 V 0 H 2.546875 v -18.578125 h 2.28125 L 6.375,-16.3125 6.65625,-15.84375 H 13.75 Z M 10.390625,-74.515625 V -79.53125 H 21.59375 v 11.125 H 10.390625 v -5.015625 H 14.75 c 0.25,0.492187 0.644531,0.734375 1.1875,0.734375 0.363281,0 0.664062,-0.117188 0.90625,-0.359375 0.25,-0.25 0.375,-0.554687 0.375,-0.921875 0,-0.363281 -0.125,-0.664062 -0.375,-0.90625 -0.242188,-0.25 -0.542969,-0.375 -0.90625,-0.375 -0.542969,0 -0.9375,0.246094 -1.1875,0.734375 z m 0,0"
                   id="path54" /></g></g></g></g></g></g></g></svg>
